HIERARCHY
ROOT hip
{
	OFFSET 0.000000 0.000000 0.000000 
	CHANNELS 6 Xposition Yposition Zposition Xrotation Zrotation Yrotation
	JOINT abdomen
	{
		OFFSET 0.000000 3.402643 0.000000 
		CHANNELS 3 Xrotation Zrotation Yrotation
		JOINT chest
		{
			OFFSET 0.000000 8.438565 -0.680529 
			CHANNELS 3 Xrotation Zrotation Yrotation
			JOINT neck
			{
				OFFSET 0.000000 10.207942 -0.272212 
				CHANNELS 3 Xrotation Zrotation Yrotation
				JOINT head
				{
					OFFSET 0.000000 3.130431 0.000000 
					CHANNELS 3 Xrotation Zrotation Yrotation
					End Site
					{
						OFFSET 0.000000 3.130435 0.000000 
					}
				}
			}
			JOINT lCollar
			{
				OFFSET 3.470700 6.669187 -0.816635 
				CHANNELS 3 Yrotation Zrotation Xrotation
				JOINT lShldr
				{
					OFFSET 3.198488 0.000000 0.000000 
					CHANNELS 3 Zrotation Yrotation Xrotation
					JOINT lForeArm
					{
						OFFSET 10.139888 0.000000 0.000000 
						CHANNELS 3 Yrotation Zrotation Xrotation
						JOINT lHand
						{
							OFFSET 8.370511 0.000000 0.000000 
							CHANNELS 3 Zrotation Yrotation Xrotation
							End Site
							{
								OFFSET 4.083176 0.000000 0.000000 
							}
						}
					}
				}
			}
			JOINT rCollar
			{
				OFFSET -3.470700 6.669187 -0.816635 
				CHANNELS 3 Yrotation Zrotation Xrotation
				JOINT rShldr
				{
					OFFSET -3.198488 0.000000 0.000000 
					CHANNELS 3 Zrotation Yrotation Xrotation
					JOINT rForeArm
					{
						OFFSET -10.139888 0.000000 0.000000 
						CHANNELS 3 Yrotation Zrotation Xrotation
						JOINT rHand
						{
							OFFSET -8.370511 0.000000 0.000000 
							CHANNELS 3 Zrotation Yrotation Xrotation
							End Site
							{
								OFFSET -4.083176 0.000000 0.000000 
							}
						}
					}
				}
			}
		}
	}
	JOINT lThigh
	{
		OFFSET 5.308129 -1.633274 1.361059 
		CHANNELS 3 Xrotation Zrotation Yrotation
		JOINT lShin
		{
			OFFSET -2.041588 -20.007561 0.000000 
			CHANNELS 3 Xrotation Zrotation Yrotation
			JOINT lFoot
			{
				OFFSET 0.000000 -19.190928 -1.224953 
				CHANNELS 3 Xrotation Yrotation Zrotation
				End Site
				{
					OFFSET 0.000000 -2.449906 4.627600 
				}
			}
		}
	}
	JOINT rThigh
	{
		OFFSET -5.308129 -1.633274 1.361059 
		CHANNELS 3 Xrotation Zrotation Yrotation
		JOINT rShin
		{
			OFFSET 2.041588 -20.007561 0.000000 
			CHANNELS 3 Xrotation Zrotation Yrotation
			JOINT rFoot
			{
				OFFSET 0.000000 -19.190928 -1.224953 
				CHANNELS 3 Xrotation Yrotation Zrotation
				End Site
				{
					OFFSET 0.000000 -2.449906 4.627600 
				}
			}
		}
	}
}
MOTION
Frames: 6
Frame Time: 0.033333
-12.287392 49.271431 15.545002 1.107012 -0.107365 -1.865249 0.000000 0.000000 0.000000 -4.531133 -0.341797 -0.019589 5.092903 6.470562 -2.033914 -1.447204 11.667882 -3.529682 -3.817047 1.574733 -3.509007 -72.459976 13.296314 6.641895 -35.484722 -5.836828 18.640148 -1.796072 6.797843 -3.596772 -1.349987 -0.943732 -3.544466 62.679512 74.956436 29.522413 105.668106 -12.884790 -17.290857 18.940384 -17.882561 -6.181976 -2.089243 5.612625 4.145660 15.895604 -2.531406 22.957855 -12.143351 0.883731 -8.367044 -3.855964 -10.130197 -7.435451 13.212193 1.864931 -23.558950 -5.081905 -0.498023 10.893764 
-12.281895 49.252720 15.491589 1.301170 -0.068319 -1.962901 0.000000 0.000000 0.000000 -4.638672 -0.371094 -0.000063 4.925592 6.186755 -2.229138 -0.805301 11.655503 -3.738408 -3.742278 1.479494 -3.616213 -72.382339 13.302414 6.909703 -35.577961 -5.927666 18.695126 -1.747611 6.810649 -3.591216 -1.378295 -0.743796 -3.651652 64.602798 75.327568 28.046038 106.779785 -12.389093 -19.019838 15.175514 -15.083630 -5.260547 -2.450951 5.565775 4.101940 16.157219 -2.507704 22.924671 -12.235405 0.917351 -8.384792 -4.333547 -10.167237 -7.337670 13.627110 1.832113 -23.616558 -5.189498 -0.519624 10.962300 
-12.274590 49.268833 15.449882 1.370599 -0.097597 -2.001967 0.000000 0.000000 0.000000 -4.697322 -0.332031 0.009765 4.952611 6.020119 -2.404981 -0.326551 11.438917 -3.904974 -3.631948 1.349116 -3.675140 -72.391136 13.244610 7.196025 -35.626060 -6.028490 18.904730 -1.622466 7.131076 -3.603187 -1.410395 -0.926521 -3.700564 65.002625 75.020714 28.314432 107.278900 -12.473159 -17.753441 10.950144 -14.420078 -4.727213 -2.517920 5.600649 4.085044 16.018259 -2.548079 23.093885 -12.116581 0.898403 -8.359200 -4.314115 -10.128346 -7.277928 13.286988 1.813872 -23.716093 -4.957521 -0.491473 10.871398 
-12.274097 49.287014 15.428783 1.207492 -0.175668 -2.060567 0.000000 0.000000 0.000000 -4.609430 -0.322266 0.009765 5.018217 6.000032 -2.533282 0.171738 11.127014 -3.910752 -3.453427 1.411109 -3.597894 -72.489761 13.094883 7.563616 -35.813599 -6.172372 18.783291 -1.563069 7.418305 -3.611093 -1.545446 -0.763252 -3.622102 64.045250 74.706619 31.208773 106.398170 -13.260658 -13.727688 11.309023 -16.053816 -4.987254 -2.322573 5.717400 4.243514 15.895972 -2.629408 23.150200 -12.026042 0.874833 -8.249506 -3.992059 -10.031238 -7.320994 12.885767 1.862143 -23.802094 -4.715208 -0.440309 10.758181 
-12.262649 49.265881 15.403906 1.170497 -0.234225 -2.050804 0.000000 0.000000 0.000000 -4.560068 -0.351562 -0.078183 4.902458 5.969879 -2.718836 0.719705 10.971128 -3.908889 -3.599707 1.593281 -3.548842 -72.784058 12.956303 7.635962 -35.838017 -6.121353 18.756302 -1.807450 7.442759 -3.614463 -1.589404 -0.849583 -3.582984 62.772320 74.117775 33.489548 105.320923 -13.824230 -10.600554 17.003000 -18.069345 -5.949484 -2.498741 5.778002 4.239814 16.269968 -2.612200 22.952002 -12.199462 0.899498 -8.327621 -4.159142 -10.005242 -7.277671 13.206051 1.851013 -23.814148 -4.839898 -0.474071 10.800818 
-12.257027 49.243160 15.355948 1.179197 -0.214719 -1.953148 0.000000 0.000000 0.000000 -4.432342 -0.458983 -0.156323 4.851702 5.949269 -2.935559 0.551477 10.814358 -3.976022 -3.918828 1.702683 -3.430659 -73.043442 12.696083 7.533071 -35.982925 -6.003400 18.519695 -2.103345 7.346711 -3.621093 -1.536158 -1.129639 -3.476043 61.904984 73.504036 33.571144 105.637924 -13.991983 -8.012568 19.249989 -18.261419 -6.286174 -2.732213 5.756011 4.203935 16.653151 -2.597464 22.783348 -12.352166 0.922602 -8.319244 -4.374827 -10.057802 -7.275076 13.636722 1.851599 -23.682222 -5.051375 -0.507947 10.899171 
